<svg xmlns="http://www.w3.org/2000/svg" viewBox="0 0 400 260" role="img" aria-label="Individualni trening: trener i jedan igrač na terenu"><title>Individualni trening: trener i jedan igrač na terenu</title><rect width="400" height="260" rx="18" fill="#e7eef6"/><circle cx="350" cy="40" r="70" fill="#ffffff" opacity=".45"/><circle cx="40" cy="230" r="55" fill="#ffffff" opacity=".35"/><polygon points="70.8,120 329.2,120 370,245 30,245" fill="#24597c"/><polygon points="78.8,124.8 321.2,124.8 362,240.2 38,240.2" fill="#2c6a93"/><polygon points="78.8,124.8 321.2,124.8 362,240.2 38,240.2" fill="none" stroke="#ffffff" stroke-width="2.2" opacity=".9"/><line x1="60.44" y1="176.25" x2="339.56" y2="176.25" stroke="#ffffff" stroke-width="2" opacity=".9"/><line x1="200.0" y1="176.25" x2="200.0" y2="240.2" stroke="#ffffff" stroke-width="2" opacity=".9"/><rect x="70" y="164" width="260" height="14" fill="#11304c" opacity=".18"/><line x1="70" y1="164" x2="70" y2="178" stroke="#11304c" stroke-width=".6" opacity=".35"/><line x1="78" y1="164" x2="78" y2="178" stroke="#11304c" stroke-width=".6" opacity=".35"/><line x1="86" y1="164" x2="86" y2="178" stroke="#11304c" stroke-width=".6" opacity=".35"/><line x1="94" y1="164" x2="94" y2="178" stroke="#11304c" stroke-width=".6" opacity=".35"/><line x1="102" y1="164" x2="102" y2="178" stroke="#11304c" stroke-width=".6" opacity=".35"/><line x1="110" y1="164" x2="110" y2="178" stroke="#11304c" stroke-width=".6" opacity=".35"/><line x1="118" y1="164" x2="118" y2="178" stroke="#11304c" stroke-width=".6" opacity=".35"/><line x1="126" y1="164" x2="126" y2="178" stroke="#11304c" stroke-width=".6" opacity=".35"/><line x1="134" y1="164" x2="134" y2="178" stroke="#11304c" stroke-width=".6" opacity=".35"/><line x1="142" y1="164" x2="142" y2="178" stroke="#11304c" stroke-width=".6" opacity=".35"/><line x1="150" y1="164" x2="150" y2="178" stroke="#11304c" stroke-width=".6" opacity=".35"/><line x1="158" y1="164" x2="158" y2="178" stroke="#11304c" stroke-width=".6" opacity=".35"/><line x1="166" y1="164" x2="166" y2="178" stroke="#11304c" stroke-width=".6" opacity=".35"/><line x1="174" y1="164" x2="174" y2="178" stroke="#11304c" stroke-width=".6" opacity=".35"/><line x1="182" y1="164" x2="182" y2="178" stroke="#11304c" stroke-width=".6" opacity=".35"/><line x1="190" y1="164" x2="190" y2="178" stroke="#11304c" stroke-width=".6" opacity=".35"/><line x1="198" y1="164" x2="198" y2="178" stroke="#11304c" stroke-width=".6" opacity=".35"/><line x1="206" y1="164" x2="206" y2="178" stroke="#11304c" stroke-width=".6" opacity=".35"/><line x1="214" y1="164" x2="214" y2="178" stroke="#11304c" stroke-width=".6" opacity=".35"/><line x1="222" y1="164" x2="222" y2="178" stroke="#11304c" stroke-width=".6" opacity=".35"/><line x1="230" y1="164" x2="230" y2="178" stroke="#11304c" stroke-width=".6" opacity=".35"/><line x1="238" y1="164" x2="238" y2="178" stroke="#11304c" stroke-width=".6" opacity=".35"/><line x1="246" y1="164" x2="246" y2="178" stroke="#11304c" stroke-width=".6" opacity=".35"/><line x1="254" y1="164" x2="254" y2="178" stroke="#11304c" stroke-width=".6" opacity=".35"/><line x1="262" y1="164" x2="262" y2="178" stroke="#11304c" stroke-width=".6" opacity=".35"/><line x1="270" y1="164" x2="270" y2="178" stroke="#11304c" stroke-width=".6" opacity=".35"/><line x1="278" y1="164" x2="278" y2="178" stroke="#11304c" stroke-width=".6" opacity=".35"/><line x1="286" y1="164" x2="286" y2="178" stroke="#11304c" stroke-width=".6" opacity=".35"/><line x1="294" y1="164" x2="294" y2="178" stroke="#11304c" stroke-width=".6" opacity=".35"/><line x1="302" y1="164" x2="302" y2="178" stroke="#11304c" stroke-width=".6" opacity=".35"/><line x1="310" y1="164" x2="310" y2="178" stroke="#11304c" stroke-width=".6" opacity=".35"/><line x1="318" y1="164" x2="318" y2="178" stroke="#11304c" stroke-width=".6" opacity=".35"/><line x1="70" y1="164" x2="330" y2="164" stroke="#ffffff" stroke-width="2.5"/><line x1="70" y1="164" x2="70" y2="180" stroke="#11304c" stroke-width="3"/><line x1="330" y1="164" x2="330" y2="180" stroke="#11304c" stroke-width="3"/><ellipse cx="290" cy="170" rx="22.400000000000002" ry="5.6000000000000005" fill="#11304c" opacity=".15"/><line x1="286.0" y1="130.4" x2="275.6" y2="165.0" stroke="#f1c8a0" stroke-width="6.0" stroke-linecap="round"/><line x1="294.0" y1="130.4" x2="304.4" y2="165.0" stroke="#f1c8a0" stroke-width="6.0" stroke-linecap="round"/><ellipse cx="273.6" cy="166.0" rx="5.2" ry="2.8" fill="#11304c"/><ellipse cx="306.4" cy="166.0" rx="5.2" ry="2.8" fill="#11304c"/><rect x="280.4" y="126.4" width="19.2" height="10.4" rx="2.4" fill="#11304c"/><rect x="280.4" y="108.0" width="19.2" height="24.0" rx="6.7" fill="#7fbf35"/><line x1="282.7" y1="111.2" x2="257.9" y2="120.2" stroke="#7fbf35" stroke-width="6.3" stroke-linecap="round"/><circle cx="257.9" cy="120.2" r="3.3" fill="#f1c8a0"/><line x1="297.3" y1="111.2" x2="322.1" y2="102.2" stroke="#7fbf35" stroke-width="6.3" stroke-linecap="round"/><circle cx="322.1" cy="102.2" r="3.3" fill="#f1c8a0"/><rect x="287.6" y="104.0" width="4.8" height="5.6" fill="#f1c8a0"/><circle cx="290.0" cy="96.4" r="8.4" fill="#f1c8a0"/><path d="M281.6,96.4 A8.4,8.4 0 0 1 298.4,96.4 Q290.0,93.5 281.6,96.4 Z" fill="#7a4a22"/><line x1="322.1" y1="102.2" x2="335.2" y2="93.0" stroke="#11304c" stroke-width="3.2" stroke-linecap="round"/><ellipse cx="345.9" cy="85.5" rx="9.0" ry="13.0" fill="#7fbf35" fill-opacity=".35" stroke="#11304c" stroke-width="2.6" transform="rotate(55.0 345.9 85.5)"/><ellipse cx="110" cy="234" rx="25.76" ry="6.44" fill="#11304c" opacity=".15"/><line x1="105.4" y1="188.8" x2="99.0" y2="229.0" stroke="#c98e5e" stroke-width="6.9" stroke-linecap="round"/><line x1="114.6" y1="188.8" x2="121.0" y2="229.0" stroke="#c98e5e" stroke-width="6.9" stroke-linecap="round"/><ellipse cx="97.0" cy="230.0" rx="6.0" ry="3.2" fill="#11304c"/><ellipse cx="123.0" cy="230.0" rx="6.0" ry="3.2" fill="#11304c"/><rect x="99.0" y="184.2" width="22.1" height="12.0" rx="2.8" fill="#11304c"/><rect x="99.0" y="163.0" width="22.1" height="27.6" rx="7.7" fill="#1d4a70"/><line x1="101.6" y1="166.7" x2="75.3" y2="151.5" stroke="#1d4a70" stroke-width="7.2" stroke-linecap="round"/><circle cx="75.3" cy="151.5" r="3.8" fill="#c98e5e"/><line x1="118.4" y1="166.7" x2="133.6" y2="193.0" stroke="#1d4a70" stroke-width="7.2" stroke-linecap="round"/><circle cx="133.6" cy="193.0" r="3.8" fill="#c98e5e"/><rect x="107.2" y="158.4" width="5.5" height="6.4" fill="#c98e5e"/><circle cx="110.0" cy="149.7" r="9.7" fill="#c98e5e"/><path d="M100.3,149.7 A9.7,9.7 0 0 1 119.7,149.7 Q110.0,146.3 100.3,149.7 Z" fill="#1d1d1d"/><circle cx="73.31706874110444" cy="143.5" r="5.5" fill="#d9f24f" stroke="#5d9a1f" stroke-width=".8"/><path d="M69.46706874110444,139.65 Q73.31706874110444,143.5 69.46706874110444,147.35" fill="none" stroke="#ffffff" stroke-width="1"/><path d="M77.16706874110443,139.65 Q73.31706874110444,143.5 77.16706874110443,147.35" fill="none" stroke="#ffffff" stroke-width="1"/><path d="M75.31706874110444,139.5 Q195.71047696492622,17.170668216202344 316.103885188748,72.17066821620234" fill="none" stroke="#11304c" stroke-width="1.8" stroke-dasharray="4 5" opacity=".55"/><circle cx="250" cy="92" r="6" fill="#d9f24f" stroke="#5d9a1f" stroke-width=".8"/><path d="M245.8,87.8 Q250,92 245.8,96.2" fill="none" stroke="#ffffff" stroke-width="1"/><path d="M254.2,87.8 Q250,92 254.2,96.2" fill="none" stroke="#ffffff" stroke-width="1"/><rect x="22" y="20" width="62" height="30" rx="15" fill="#11304c"/><text x="53" y="40" font-family="Arial, sans-serif" font-size="15" font-weight="700" fill="#ffffff" text-anchor="middle">1 : 1</text></svg>